Coordinates
version=1
nRows=32
nColumns=12
inDegrees=yes

Units are S.I. units (second, meters, Newtons, ...)
Angles are in degrees

endheader
time	SC_y	SC_z	SC_x	AC_y	AC_z	AC_x	GH_y	GH_z	GH_yy	EL_x	PS_y
       0.0              -20.67          19.69          9.338           51.5           6.66          13.12         -129.6         -15.08         -148.5          14.14          102.3
   0.01044              -20.67          19.69          9.337           51.5          6.656          13.12         -129.6         -15.08         -148.5          14.15          102.3
   0.02089              -20.67          19.69          9.336           51.5          6.652          13.12         -129.6         -15.08         -148.4          14.17          102.3
   0.03133              -20.67          19.68          9.336           51.5          6.649          13.12         -129.6         -15.08         -148.3          14.18          102.3
   0.04178              -20.67          19.68          9.335           51.5          6.644          13.12         -129.6         -15.07         -148.3           14.2          102.3
   0.05222              -20.67          19.68          9.334           51.5           6.64          13.12         -129.6         -15.07         -148.2          14.21          102.3
   0.06267              -20.67          19.68          9.333           51.5          6.635          13.12         -129.6         -15.07         -148.2          14.23          102.2
   0.07311              -20.66          19.68          9.332          51.51           6.63          13.12         -129.5         -15.07         -148.1          14.25          102.2
   0.08356              -20.66          19.68          9.331          51.51          6.625          13.12         -129.5         -15.07         -148.0          14.26          102.2
     0.094              -20.66          19.68           9.33          51.51          6.619          13.12         -129.5         -15.06         -148.0          14.29          102.2
    0.1044              -20.66          19.68          9.328          51.51          6.613          13.12         -129.5         -15.06         -147.9          14.31          102.2
    0.1149              -20.66          19.68          9.327          51.51          6.606          13.12         -129.4         -15.06         -147.8          14.33          102.2
    0.1253              -20.65          19.67          9.326          51.51          6.599          13.12         -129.4         -15.06         -147.7          14.36          102.2
    0.1358              -20.65          19.67          9.324          51.51          6.592          13.12         -129.4         -15.05         -147.6          14.38          102.2
    0.1462              -20.65          19.67          9.322          51.52          6.583          13.12         -129.4         -15.05         -147.5          14.41          102.2
    0.1567              -20.65          19.67          9.321          51.52          6.574          13.12         -129.3         -15.05         -147.3          14.45          102.2
    0.1671              -20.64          19.67          9.319          51.52          6.564          13.12         -129.3         -15.04         -147.2          14.48          102.2
    0.1776              -20.64          19.67          9.316          51.52          6.553          13.12         -129.3         -15.04         -147.1          14.52          102.2
     0.188              -20.64          19.66          9.314          51.52          6.542          13.12         -129.2         -15.03         -146.9          14.56          102.2
    0.1984              -20.63          19.66          9.311          51.53          6.529          13.12         -129.2         -15.03         -146.7          14.61          102.2
    0.2089              -20.63          19.66          9.309          51.53          6.515          13.12         -129.1         -15.02         -146.5          14.66          102.2
    0.2193              -20.62          19.65          9.305          51.53          6.499          13.12         -129.1         -15.01         -146.3          14.71          102.2
    0.2298              -20.62          19.65          9.302          51.54          6.482          13.12         -129.0         -15.01         -146.1          14.77          102.1
    0.2402              -20.61          19.65          9.298          51.54          6.463          13.12         -128.9          -15.0         -145.8          14.84          102.1
    0.2507              -20.61          19.64          9.294          51.54          6.442          13.12         -128.9         -14.99         -145.5          14.92          102.1
    0.2611               -20.6          19.64          9.289          51.55          6.418          13.12         -128.8         -14.98         -145.2           15.0          102.1
    0.2716              -20.59          19.63          9.284          51.55          6.392          13.12         -128.7         -14.97         -144.9           15.1          102.1
     0.282              -20.58          19.63          9.278          51.56          6.362          13.12         -128.6         -14.96         -144.5           15.2          102.1
    0.2924              -20.57          19.62          9.271          51.57          6.328          13.12         -128.5         -14.95         -144.0          15.32          102.0
    0.3029              -20.56          19.61          9.263          51.58           6.29          13.13         -128.3         -14.93         -143.5          15.46          102.0
    0.3133              -20.55           19.6          9.254          51.58          6.247          13.13         -128.2         -14.91         -142.9          15.61          102.0
    0.3238              -20.53          19.59          9.244           51.6          6.197          13.13         -128.0         -14.89         -142.2          15.79          101.9
